<?xml version="1.0" standalone="no"?>
<!DOCTYPE svg PUBLIC "-//W3C//DTD SVG 20010904//EN"
 "http://www.w3.org/TR/2001/REC-SVG-20010904/DTD/svg10.dtd">
<svg version="1.0" xmlns="http://www.w3.org/2000/svg"
 width="947.000000pt" height="793.000000pt" viewBox="0 0 947.000000 793.000000"
 preserveAspectRatio="xMidYMid meet">

<g transform="translate(0.000000,793.000000) scale(0.100000,-0.100000)"
fill="#000000" stroke="none">
<path d="M0 3965 c0 -2637 3 -3965 10 -3965 7 0 10 1328 10 3965 0 2637 -3
3965 -10 3965 -7 0 -10 -1328 -10 -3965z"/>
<path d="M9440 3965 c0 -3518 2 -3965 15 -3965 13 0 15 447 15 3965 0 3518 -2
3965 -15 3965 -13 0 -15 -447 -15 -3965z"/>
<path d="M2830 5021 c0 -1034 3 -1886 6 -1895 6 -15 182 -16 1898 -16 1458 0
1895 3 1904 12 14 14 17 1565 5 2945 -6 717 -8 810 -21 805 -20 -7 78 89 -955
-939 -548 -547 -913 -903 -924 -903 -11 0 -386 368 -953 935 -514 514 -940
935 -947 935 -11 0 -13 -352 -13 -1879z"/>
<path d="M942 2648 c-9 -9 -12 -143 -12 -540 0 -511 1 -528 19 -538 24 -13
101 -13 121 0 12 8 16 49 20 239 3 126 8 232 11 235 3 3 20 -1 38 -10 38 -19
118 -14 132 7 5 8 9 30 9 48 0 28 3 33 13 23 9 -10 13 -81 15 -265 4 -289 4
-287 82 -287 92 0 85 -43 85 555 0 456 -2 527 -15 535 -22 14 -123 12 -143 -2
-9 -7 -33 -60 -53 -118 -20 -58 -43 -112 -51 -120 -13 -13 -16 -13 -28 4 -8
10 -28 60 -45 110 -43 131 -48 136 -124 136 -35 0 -67 -5 -74 -12z"/>
<path d="M1636 2644 c-14 -14 -16 -76 -16 -534 l0 -519 22 -15 c28 -20 98 -21
123 -2 17 12 19 31 21 221 2 115 7 212 12 217 14 14 182 12 196 -2 7 -7 12
-84 14 -220 3 -201 4 -210 24 -221 27 -14 117 -6 129 12 14 23 11 1053 -3
1067 -9 9 -80 12 -259 12 -212 0 -250 -2 -263 -16z m356 -162 c9 -9 13 -51 13
-138 0 -151 -2 -154 -110 -154 -96 0 -103 7 -106 100 -5 156 -1 190 24 200 31
13 164 7 179 -8z"/>
<path d="M2332 2648 c-15 -15 -17 -1044 -3 -1067 5 -8 31 -16 63 -18 94 -8 87
-41 90 464 2 333 6 445 15 454 16 16 143 22 177 9 l26 -10 0 -134 c0 -156 0
-156 -93 -156 -75 0 -81 -11 -57 -91 11 -35 38 -132 60 -216 53 -199 86 -295
107 -310 25 -19 97 -16 121 5 l21 17 -55 189 c-30 104 -54 198 -52 210 2 17
13 22 51 28 27 4 52 10 55 13 4 4 8 139 10 300 3 259 1 295 -13 309 -14 14
-50 16 -264 16 -179 0 -250 -3 -259 -12z"/>
<path d="M3033 2653 c-10 -4 -13 -121 -13 -538 0 -518 1 -535 19 -545 25 -13
97 -13 122 0 18 10 19 23 19 223 0 152 3 216 12 225 16 16 63 15 77 -2 6 -7
25 -67 42 -132 54 -210 80 -288 101 -306 38 -33 138 -18 138 20 0 38 -147 560
-165 589 -8 12 -15 30 -15 39 0 9 39 99 86 200 48 105 84 194 82 207 -3 19
-10 22 -55 25 -86 5 -83 9 -193 -233 -13 -27 -31 -68 -40 -90 -19 -43 -46 -72
-58 -61 -4 4 -8 87 -10 184 -2 104 -8 182 -14 189 -10 13 -109 17 -135 6z"/>
<path d="M3726 2644 c-14 -14 -16 -76 -16 -533 0 -464 2 -520 16 -532 12 -10
74 -14 251 -17 281 -4 283 -4 283 83 0 84 -3 85 -194 85 -138 0 -166 3 -177
16 -16 20 -20 247 -4 263 6 6 49 11 95 12 110 1 126 5 138 37 18 46 22 93 12
113 -10 17 -22 19 -113 19 -145 0 -142 -3 -142 154 0 89 4 129 13 138 9 9 60
14 180 16 97 2 172 8 179 14 16 13 17 101 3 129 -10 18 -24 19 -260 19 -213 0
-251 -2 -264 -16z"/>
<path d="M4420 2641 c-12 -24 -13 -111 -1 -130 6 -10 28 -13 79 -12 53 1 74
-2 86 -14 14 -15 16 -66 16 -455 0 -503 -6 -470 90 -470 48 0 61 4 70 19 6 13
10 174 10 454 0 387 2 436 16 448 9 7 46 15 83 17 36 2 72 9 79 14 18 15 16
113 -4 132 -13 14 -51 16 -264 16 -236 0 -250 -1 -260 -19z"/>
<path d="M5123 2653 c-17 -6 -18 -139 -2 -149 6 -4 42 -6 79 -5 105 3 100 22
100 -387 0 -217 -4 -350 -10 -363 -9 -16 -22 -19 -76 -19 -95 0 -104 -7 -104
-85 0 -53 3 -66 19 -75 30 -16 482 -13 505 3 12 9 18 29 20 67 3 74 -14 90
-97 90 -36 0 -68 5 -75 12 -9 9 -12 106 -12 374 l0 362 34 12 c19 6 56 10 81
9 63 -4 79 16 71 90 -2 30 -11 58 -18 62 -14 9 -494 11 -515 2z"/>
<path d="M5820 2650 c-22 -13 -28 -1035 -7 -1064 10 -14 29 -20 69 -22 91 -6
87 -19 90 346 4 390 9 398 93 155 21 -60 56 -153 77 -205 32 -77 41 -111 45
-183 7 -108 18 -119 103 -109 l55 7 3 529 c1 382 -1 533 -9 542 -14 18 -120
19 -137 2 -8 -8 -12 -62 -12 -177 0 -162 -5 -211 -20 -211 -11 0 -56 98 -105
231 -65 175 -60 169 -153 169 -42 0 -84 -5 -92 -10z"/>
<path d="M6516 2644 c-14 -14 -16 -76 -16 -533 0 -450 2 -520 15 -531 11 -9
80 -13 259 -14 278 -1 276 -1 276 73 0 78 -2 79 -193 84 -110 3 -172 8 -180
16 -9 9 -13 131 -15 453 -2 301 -6 446 -14 455 -15 19 -112 17 -132 -3z"/>
<path d="M7212 2648 c-9 -9 -12 -143 -12 -540 l0 -528 23 -9 c13 -5 43 -8 67
-7 68 3 70 10 70 242 0 144 3 205 12 210 6 4 44 9 84 12 57 4 79 1 99 -12 l25
-16 0 -204 c0 -160 3 -206 14 -215 24 -20 94 -24 121 -7 l25 16 0 516 c0 336
-4 522 -10 535 -10 18 -24 19 -258 19 -180 0 -251 -3 -260 -12z m346 -164 c21
-14 22 -22 22 -139 0 -155 0 -155 -114 -155 -50 0 -87 5 -94 12 -8 8 -12 55
-12 145 0 129 1 134 23 143 38 15 150 12 175 -6z"/>
<path d="M7916 2644 c-14 -14 -16 -76 -16 -532 0 -302 4 -523 10 -532 7 -12
50 -15 259 -15 173 0 253 3 261 11 8 8 12 101 13 303 2 322 4 311 -61 311 -42
0 -72 16 -72 38 0 9 30 104 67 211 63 185 65 195 48 207 -15 11 -72 14 -256
14 -203 0 -240 -2 -253 -16z m281 -150 c12 -3 24 -11 26 -18 6 -14 -91 -304
-118 -356 -15 -30 -18 -31 -27 -16 -13 22 -23 290 -14 340 5 25 14 40 29 46
26 10 73 12 104 4z m64 -474 c17 -10 19 -22 19 -139 0 -97 -3 -131 -14 -140
-19 -16 -174 -17 -189 -2 -16 16 -22 227 -8 264 10 26 12 27 91 27 45 0 90 -5
101 -10z"/>
<path d="M2521 1242 c-6 -11 -11 -44 -11 -72 0 -28 -7 -66 -14 -85 -13 -30
-20 -35 -50 -35 -54 0 -76 35 -76 122 0 61 -2 69 -17 66 -14 -2 -19 -15 -21
-58 -7 -121 25 -170 109 -170 39 0 55 6 79 28 29 25 31 33 35 102 2 49 -1 83
-9 99 -13 24 -14 24 -25 3z"/>
<path d="M2730 1241 c-13 -24 -13 -181 0 -201 8 -12 14 -10 37 12 15 15 47 31
71 37 24 5 45 11 46 13 45 59 46 89 7 129 -26 26 -36 29 -90 29 -49 0 -62 -3
-71 -19z m121 -31 c40 -22 8 -90 -43 -90 -18 0 -48 36 -48 57 0 34 52 53 91
33z"/>
<path d="M3092 1237 c-41 -44 -18 -94 54 -117 33 -11 51 -40 38 -61 -4 -7 -24
-9 -54 -6 -56 7 -66 1 -43 -25 24 -26 112 -25 141 2 31 29 29 73 -4 99 -15 12
-32 21 -39 21 -7 0 -23 9 -36 19 -32 26 -14 45 40 43 46 -2 58 9 35 32 -25 26
-106 21 -132 -7z"/>
<path d="M3434 1227 c-62 -57 -53 -166 17 -202 41 -22 102 -19 124 5 18 20 17
20 -33 20 -65 0 -79 6 -98 42 -20 38 -10 82 24 109 22 17 35 19 74 14 40 -6
48 -4 48 9 0 22 -32 36 -79 36 -33 0 -49 -7 -77 -33z"/>
<path d="M3846 1244 c-9 -8 -16 -20 -16 -26 0 -5 -18 -46 -40 -89 -22 -44 -40
-86 -40 -94 0 -21 27 -18 50 5 28 28 108 28 143 0 48 -38 46 9 -6 120 -32 67
-54 100 -68 100 -4 0 -15 -7 -23 -16z m43 -92 c18 -34 -24 -57 -49 -27 -10 12
-10 18 0 30 17 20 37 19 49 -3z"/>
<path d="M4450 1241 c-5 -11 -10 -59 -10 -106 0 -120 4 -125 96 -125 56 0 75
3 72 12 -3 7 -24 16 -48 20 -24 4 -50 13 -57 21 -20 20 10 55 50 59 40 4 38
21 -4 28 -36 6 -55 29 -46 54 5 11 19 16 50 16 42 0 75 19 60 33 -3 4 -39 7
-79 7 -62 0 -75 -3 -84 -19z"/>
<path d="M5126 1238 c-9 -12 -16 -36 -16 -53 0 -20 -9 -40 -24 -54 l-25 -23
-16 38 c-8 21 -18 48 -21 61 -8 30 -42 50 -50 30 -5 -14 19 -94 50 -168 33
-78 71 -73 82 12 8 59 40 92 61 63 6 -9 17 -38 24 -66 23 -87 56 -83 89 10 10
26 25 69 35 96 15 40 15 50 4 57 -24 15 -27 11 -49 -56 -28 -84 -58 -86 -75
-5 -8 39 -31 80 -45 80 -5 0 -16 -10 -24 -22z"/>
<path d="M5676 1251 c-3 -5 10 -18 29 -30 32 -19 35 -24 36 -68 2 -106 4 -118
19 -118 12 0 16 18 20 83 5 80 6 83 38 102 17 11 32 24 32 30 0 13 -167 14
-174 1z"/>
<path d="M7005 1235 c-14 -13 -25 -30 -25 -37 0 -26 32 -59 71 -75 74 -29 69
-82 -7 -70 -19 3 -42 3 -50 0 -13 -5 -13 -8 2 -24 12 -14 31 -19 64 -19 60 0
100 28 100 70 0 29 -38 70 -65 70 -7 0 -23 8 -36 19 -20 16 -21 21 -10 35 10
12 23 14 52 10 35 -6 39 -4 39 14 0 41 -97 46 -135 7z"/>
<path d="M4146 1228 c-10 -38 -7 -178 4 -199 9 -15 22 -19 66 -19 56 0 69 13
31 32 -9 4 -25 12 -34 17 -15 6 -19 24 -21 87 -3 72 -13 104 -32 104 -4 0 -10
-10 -14 -22z"/>
<path d="M5482 1228 c-10 -13 -8 -171 3 -188 18 -28 25 0 25 95 0 101 -6 120
-28 93z"/>
<path d="M6017 1234 c-9 -9 -9 -176 -1 -198 8 -21 34 -2 34 25 0 29 36 59 70
59 37 0 70 -31 70 -66 0 -19 5 -25 18 -22 14 3 17 16 20 83 2 44 0 90 -3 102
-7 30 -35 30 -35 0 0 -41 -27 -67 -69 -67 -42 0 -67 20 -73 59 -3 25 -19 37
-31 25z"/>
<path d="M6600 1156 c0 -81 1 -86 31 -115 25 -26 38 -31 77 -31 81 1 115 49
110 158 -3 59 -5 67 -23 67 -18 0 -21 -8 -25 -76 -6 -85 -19 -109 -61 -109
-50 0 -69 30 -69 109 0 65 -7 81 -36 81 -2 0 -4 -38 -4 -84z"/>
</g>
</svg>
