<?xml version="1.0" encoding="UTF-8"?>
<svg version="1.1" viewBox="0 0 1600 1600" width="1280" height="1280" xmlns="http://www.w3.org/2000/svg">
<path transform="translate(0)" d="m0 0h1600v1600h-1600v-1600z" fill="#000002"/>
<path transform="translate(802 417)" d="m0 0c3.19 1.58 6.19 3.28 9.21 5.16 6.95 4.26 14 8.37 21.1 12.4 1.11 0.64 2.22 1.28 3.37 1.94 2.29 1.32 4.58 2.64 6.87 3.95 4.5 2.59 8.99 5.19 13.5 7.78 14.1 8.14 28.2 16.2 42.3 24.3 9.39 5.35 18.7 10.7 28 16.2 5.58 3.29 11.2 6.56 16.8 9.82 1.03 0.6 2.05 1.21 3.11 1.83 4.39 2.55 8.77 5.1 13.2 7.58 0.65 0.36 1.3 0.72 1.96 1.1 1.64 0.91 3.29 1.82 4.93 2.72 2.72 1.72 4.57 3.16 6.61 5.65 0.5 2.81 0.5 2.81 0.51 6.12 0.01 1.89 0.01 1.89 0.03 3.82-0.01 1.41-0.02 2.81-0.02 4.22 0 1.49 0.01 2.98 0.02 4.47 0.02 4.1 0.01 8.2 0 12.3-0.01 4.42 0.01 8.84 0.02 13.3 0.02 8.66 0.02 17.3 0.01 26 0 7.03 0 14.1 0.01 21.1v3.03 6.1c0.02 19.1 0.01 38.1-0.01 57.2-0.01 17.4 0 34.9 0.03 52.4 0.03 17.9 0.04 35.8 0.03 53.7v6.08 3.02c0 7.02 0.01 14 0.02 21.1 0.02 8.57 0.02 17.1 0 25.7-0.01 4.37-0.02 8.74 0 13.1 0.02 4 0.01 8-0.01 12-0.01 1.45 0 2.9 0.01 4.35 0.01 1.96 0 3.93-0.02 5.89v3.31c-1.01 4.52-4.23 5.9-7.92 8.3-5.39 3.19-10.8 6.25-16.4 9.21-2.5 1.34-2.5 1.34-5.35 3.3-2.69-0.38-2.69-0.38-5-1v-2.3c0.08-45 0.11-90 0.08-135-0.01-5.4-0.01-10.8-0.01-16.2v-3.26c-0.01-17.4 0.01-34.8 0.04-52.2 0.04-17.9 0.04-35.7 0.01-53.6-0.02-11-0.01-22.1 0.03-33.1 0.03-7.56 0.02-15.1-0.01-22.7-0.02-4.36-0.02-8.73 0.01-13.1 0.03-4 0.02-7.99-0.02-12 0-1.45 0-2.89 0.03-4.34 0.34-7.81 0.34-7.81-3.14-14.4-2.29-1.55-4.5-2.73-7.02-3.84-0.9-0.55-1.8-1.09-2.73-1.66-0.74-0.42-1.48-0.84-2.25-1.27-0.85-0.48-1.69-0.96-2.56-1.46-0.88-0.49-1.75-0.98-2.65-1.49-1.39-0.79-1.39-0.79-2.81-1.59-2.66-1.51-5.33-3.02-8-4.53-9.49-5.38-18.9-10.9-28.3-16.4-14.3-8.33-28.6-16.6-42.9-24.8-4.08-2.32-8.13-4.69-12.2-7.1-0.97-0.58-1.94-1.16-2.95-1.76-1.91-1.14-3.83-2.29-5.74-3.45-2.61-1.56-5.24-3.07-7.9-4.56-1.21-0.68-1.21-0.68-2.46-1.38-4.62-2.4-4.62-2.4-9.64-1.75-0.98 0.66-1.95 1.32-2.96 2-1.21 0.78-2.42 1.55-3.63 2.32-0.67 0.45-1.34 0.89-2.04 1.35-4.51 2.9-9.19 5.52-13.8 8.21-2.1 1.22-4.19 2.45-6.29 3.67-6.38 3.72-12.8 7.38-19.2 11-6.78 3.87-13.5 7.79-20.3 11.7-6.54 3.82-13.1 7.62-19.7 11.3-13.8 7.69-27.4 15.7-40.9 23.8-0.61 0.37-1.23 0.73-1.86 1.11-2.75 1.58-2.75 1.58-5.2 3.58-0.1 1.91-0.13 3.83-0.14 5.74 0 1.26-0.01 2.52-0.01 3.81-0.01 1.41-0.01 2.82-0.01 4.24 0 1.48-0.01 2.97-0.01 4.45-0.02 4.11-0.02 8.21-0.03 12.3-0.01 4.42-0.02 8.83-0.03 13.2-0.03 7.66-0.04 15.3-0.06 23-0.02 11.1-0.05 22.1-0.08 33.2-0.05 18-0.09 35.9-0.13 53.9-0.04 17.5-0.08 34.9-0.13 52.4 0 1.07 0 2.15-0.01 3.25-0.01 5.4-0.02 10.8-0.04 16.2-0.11 44.8-0.22 89.6-0.32 134-3.33-0.62-5.87-1.28-8.78-3.04-0.7-0.42-1.4-0.83-2.12-1.26-0.71-0.44-1.43-0.88-2.16-1.33-1.41-0.84-2.82-1.69-4.22-2.54-0.7-0.43-1.39-0.87-2.11-1.32-2.62-1.59-2.62-1.59-5.64-2.81-8.29-3.85-8.29-3.85-10.1-8.7-0.42-3.85-0.45-7.62-0.36-11.5-0.01-1.49-0.02-2.98-0.04-4.47-0.03-4.08 0.01-8.16 0.06-12.2 0.04-4.4 0.02-8.81 0-13.2-0.02-8.63 0.02-17.2 0.08-25.9 0.07-10 0.08-20.1 0.08-30.1 0.01-17.9 0.07-35.8 0.17-53.7 0.09-17.4 0.15-34.8 0.16-52.2v-3.24c0-2.16 0.01-4.32 0.01-6.48v-3.22-3.22c0.02-16.6 0.06-33.1 0.11-49.7 0.02-6 0.03-12 0.05-18 0.01-9.53 0.04-19 0.1-28.6 0.03-4.36 0.05-8.71 0.05-13.1 0.01-3.99 0.03-7.97 0.06-12 0.01-1.44 0.02-2.88 0.01-4.33 0-1.95 0.02-3.91 0.05-5.87 0-1.08 0.01-2.17 0.01-3.29 0.63-3.47 1.82-4.61 4.51-6.8 1.76-1.17 1.76-1.17 3.56-2.12 0.68-0.37 1.37-0.74 2.07-1.13 0.74-0.39 1.48-0.78 2.25-1.19 6.92-3.76 13.7-7.65 20.5-11.7 8.44-5.02 17-9.94 25.5-14.8 8.88-5.06 17.7-10.2 26.6-15.3 8.13-4.76 16.3-9.47 24.5-14.1 7.15-4.07 14.3-8.18 21.4-12.3 7.72-4.46 15.4-8.91 23.2-13.2 3.25-1.8 6.41-3.69 9.53-5.7 1.02-0.65 1.02-0.65 2.05-1.31 1.28-0.82 2.56-1.66 3.82-2.52 2.99-1.9 4.53-2.65 8.08-2.03z" fill="#FAFDFF"/>
<path transform="translate(837,609)" d="m0 0c7.35 3.55 14.4 7.47 21.4 11.6 2.11 1.25 4.23 2.49 6.35 3.74 1.04 0.61 2.08 1.22 3.16 1.86 2.82 1.64 5.65 3.27 8.48 4.89 16.6 9.46 16.6 9.46 23.6 14.9 0.97 0.75 1.94 1.5 2.94 2.28 3.29 2.76 5.72 5.91 8.18 9.41 0.42 0.56 0.84 1.12 1.27 1.7 5.67 7.95 8.22 15.8 8.11 25.6 0.01 1.41 0.01 1.41 0.02 2.85 0.01 3.07-0.01 6.14-0.02 9.21v6.45c0 4.48-0.01 8.97-0.03 13.4-0.03 5.75-0.03 11.5-0.02 17.2 0.01 4.43 0 8.85-0.01 13.3v6.36c0 2.96-0.01 5.92-0.04 8.88 0.01 0.87 0.01 1.74 0.02 2.64-0.06 4.73-0.38 7.83-3.42 11.7-2.84 2.55-5.58 4.35-9 6 0.54 0.31 1.09 0.63 1.64 0.95 8.47 5.07 8.47 5.07 9.92 9.92 0.44 2.12 0.57 4.02 0.59 6.19 0 0.8 0.01 1.6 0.02 2.42 0 0.87 0 1.73 0.01 2.63 0 0.92 0.01 1.84 0.02 2.79 0.02 3.05 0.03 6.09 0.04 9.14 0 1.04 0.01 2.09 0.01 3.16 0.02 5.52 0.04 11 0.05 16.6 0.01 5.69 0.04 11.4 0.08 17.1 0.03 4.38 0.03 8.77 0.04 13.2 0 2.09 0.01 4.19 0.03 6.29 0.03 2.94 0.03 5.88 0.02 8.83 0.01 0.85 0.03 1.71 0.04 2.59-0.11 12.8-7.16 23-15.9 31.8-7.43 6.67-16 11.6-24.8 16.4-2.21 1.21-4.42 2.43-6.63 3.65-1.6 0.88-1.6 0.88-3.23 1.79-4.11 2.29-8.16 4.65-12.2 7.06-7.22 4.28-14.5 8.47-21.8 12.6-1.06-3.17-1.13-5.4-1.13-8.74 0-1.2-0.01-2.4-0.01-3.64 0-1.34 0-2.69 0.01-4.03-0.01-1.42-0.01-2.84-0.01-4.26-0.01-3.91-0.01-7.82-0.01-11.7 0-4.22 0-8.43-0.01-12.6 0-8.26-0.01-16.5-0.01-24.8v-20.1c-0.01-19-0.02-38-0.02-57v-3.11-3.11c0.01-16.6 0-33.3-0.02-50-0.01-17.1-0.02-34.2-0.02-51.2 0-9.59 0-19.2-0.01-28.8-0.01-8.17-0.01-16.3-0.01-24.5 0.01-4.17 0.01-8.34 0-12.5-0.01-3.82-0.01-7.63 0-11.4 0-1.39 0-2.77-0.01-4.15 0-1.88 0-3.75 0.01-5.62v-3.16c0.25-2.45 0.25-2.45 2.25-4.45z" fill="#FAFDFF"/>
<path transform="translate(756,619)" d="m0 0c4.23 3.13 5.7 5.99 7 11 0.27 3.05 0.25 6.07 0.23 9.13v2.72c0 2.95-0.02 5.91-0.03 8.86-0.01 2.06-0.01 4.11-0.01 6.16-0.01 5.4-0.03 10.8-0.05 16.2-0.02 5.51-0.03 11-0.04 16.5-0.02 10.8-0.06 21.6-0.1 32.4-5.7 1.43-11.4 2.82-17.1 4.12-0.78 0.19-1.55 0.37-2.34 0.56-4.25 0.96-8.15 1.63-12.5 1.32-1.84-1.84-1.17-4.8-1.21-7.26-0.01-0.66-0.02-1.31-0.03-1.98-0.03-2.17-0.05-4.34-0.08-6.51-0.02-1.5-0.04-3.01-0.06-4.51-0.05-3.95-0.1-7.91-0.15-11.9-0.05-4.03-0.11-8.07-0.16-12.1-0.11-7.92-0.21-15.8-0.31-23.8-0.99 0.43-1.97 0.87-2.99 1.31-1.3 0.57-2.59 1.13-3.89 1.69-0.65 0.29-1.3 0.57-1.97 0.87-4.92 2.13-4.92 2.13-7.15 2.13-0.78 4.13-1.13 8.05-1.16 12.2-0.01 1.21-0.02 2.43-0.03 3.68-0.01 1.95-0.01 1.95-0.01 3.94-0.01 0.67-0.01 1.33-0.01 2.02-0.02 3.54-0.03 7.08-0.03 10.6-0.01 3.64-0.03 7.27-0.06 10.9-0.02 2.81-0.02 5.63-0.02 8.44-0.01 1.98-0.03 3.97-0.05 5.95 0.03 8.74 1.06 15.1 5.9 22.5 0.48 0.74 0.95 1.48 1.44 2.24 0.76 1.16 0.76 1.16 1.53 2.34 1.08 1.68 2.17 3.37 3.25 5.06 0.55 0.85 1.09 1.7 1.65 2.57 8.34 13 16 26.3 23.2 40 1.24 2.3 2.49 4.59 3.75 6.87 6.92 12.6 10.8 23.5 10.8 37.9 0.01 1.53 0.01 1.53 0.02 3.08 0.01 3.35 0.02 6.7 0.02 10 0.01 2.33 0.01 4.67 0.02 7 0.01 4.88 0.02 9.76 0.02 14.6 0.01 6.26 0.03 12.5 0.06 18.8 0.02 4.81 0.02 9.62 0.02 14.4 0.01 2.3 0.01 4.61 0.03 6.91 0.01 3.23 0.01 6.45 0.01 9.68 0.01 0.95 0.01 1.9 0.02 2.88-0.03 6.1-0.83 10.5-5.07 15.2-4.16 2.02-8.06 1.71-12.4 0.57-12.8-4.68-24.8-12.7-36.5-19.7-0.82-0.48-1.64-0.97-2.48-1.46-10.7-6.43-10.7-6.43-14.9-10.3v-2c-0.57-0.22-1.15-0.44-1.74-0.67-2.95-1.74-4.39-3.81-6.38-6.58-0.69-0.93-1.37-1.87-2.08-2.83-3.16-5.12-4.05-9.59-4.03-15.6v-3.94c0.01-1.4 0.02-2.81 0.03-4.21 0.01-1.45 0.01-2.9 0.01-4.35 0.01-3.8 0.03-7.6 0.05-11.4 0.02-3.88 0.03-7.77 0.04-11.6 0.02-7.6 0.06-15.2 0.1-22.8 3.72-2.05 5.53-2.04 9.72-1.17 1.1 0.22 2.19 0.44 3.32 0.67 1.14 0.25 2.28 0.5 3.46 0.75 1.14 0.23 2.28 0.46 3.46 0.7 4.75 0.99 8.67 1.87 13 4.05l1 64 17 9c0.02-8.71 0.04-17.4 0.05-26.1 0.01-4.05 0.01-8.09 0.03-12.1 0.01-3.91 0.01-7.82 0.01-11.7 0.01-1.48 0.01-2.97 0.02-4.46 0.28-15.9 0.28-15.9-5.11-30.5-0.47-0.83-0.93-1.66-1.41-2.52-1.63-2.88-3.29-5.75-4.97-8.6-0.91-1.57-0.91-1.57-1.84-3.16-8.07-13.7-16.3-27.4-25.9-40.1-12-16.5-12-16.5-12.1-25.6-0.02-1.08-0.02-1.08-0.04-2.18-0.11-7.56-0.16-15.1-0.2-22.7-0.02-3.58-0.06-7.16-0.12-10.7-0.07-4.34-0.11-8.67-0.12-13-0.01-1.64-0.04-3.29-0.07-4.93-0.29-14.5 3.04-24.4 12.8-35.5 10.5-9.76 23.6-16.3 36-23.3 3.67-2.09 7.27-4.27 10.8-6.49 6.06-3.44 12.3-5.16 19.2-4.24z" fill="#FAFDFF"/>
<path transform="translate(804,532)" d="m0 0c2.74 1.34 2.74 1.34 5.31 2.94 0.86 0.52 1.73 1.05 2.62 1.59 2.07 1.47 2.07 1.47 3.07 3.47 0.1 2.31 0.14 4.63 0.15 6.94 0.01 0.73 0.01 1.46 0.01 2.21 0.02 2.46 0.02 4.92 0.03 7.37 0.01 1.78 0.01 3.55 0.02 5.32 0.02 4.88 0.04 9.77 0.05 14.7 0.02 4.18 0.03 8.37 0.05 12.6 0.15 39.7 0.23 79.3 0.29 119 0.01 5.16 0.02 10.3 0.02 15.5 0.01 1.28 0.01 2.56 0.01 3.89 0.04 20.8 0.11 41.6 0.2 62.4 0.08 21.3 0.14 42.7 0.15 64 0.01 12 0.04 24 0.11 36 0.06 10.2 0.08 20.4 0.06 30.6 0 5.21 0 10.4 0.06 15.6 0.04 4.77 0.04 9.53 0.01 14.3-0.01 1.73 0 3.45 0.03 5.18 0.22 12.9 0.22 12.9-3.45 16.8-2.56 1.55-5 2.65-7.8 3.69l-3 2c-4.64-0.27-8.33-2.64-12.2-4.94-0.96-0.54-0.96-0.54-1.93-1.09-4.69-2.71-4.69-2.71-5.82-4.97-0.1-2.21-0.13-4.43-0.13-6.64v-2.1-7.05-5.07c-0.01-4.67 0-9.33 0-14v-15.1c-0.01-9.85-0.01-19.7-0.01-29.6 0.01-8.02 0.01-16 0.01-24v-3.46c0-2.31 0-4.62-0.01-6.94 0-21.7 0.01-43.5 0.01-65.2 0.01-18.6 0-37.3 0-55.9-0.01-21.6-0.01-43.3 0-64.9v-6.93-3.44c0-8 0-16-0.01-24 0-9.76 0-19.5 0.01-29.3v-14.9c-0.01-4.56 0-9.12 0-13.7v-4.93c-0.01-4.97 0.03-9.93 0.13-14.9 0.01-0.67 0.03-1.34 0.04-2.03 0.05-1.94 0.13-3.87 0.22-5.8 0.04-1.1 0.09-2.2 0.14-3.33 0.94-4.45 3.54-6.12 7.19-8.58 0.92-0.52 1.84-1.04 2.79-1.57 1.37-0.8 1.37-0.8 2.77-1.62 3.51-1.32 5.27-1.09 8.85-0.07z" fill="#FAFDFF"/>
<path transform="translate(382 1048)" d="m0 0h2.24c2.22-0 4.44-0.02 6.66-0.04 18.4-0.07 18.4-0.07 26 6.23 5.67 6.71 6.53 12.5 6.34 21.2-0.45 5-1.64 8.33-5.34 11.8-2.84 1.77-5.59 3-9 3 2.55 4.81 5.06 8.17 9 12v2h2c1.72 1.93 1.72 1.93 3.62 4.43 0.63 0.83 1.27 1.65 1.92 2.5 1.46 2.07 1.46 2.07 1.46 3.07-11.9 1.04-11.9 1.04-16.4-1.18-2.11-1.8-3.83-3.68-5.6-5.82-0.79-0.93-1.57-1.86-2.38-2.81-1.57-1.9-3.12-3.81-4.64-5.74-0.66-0.81-1.31-1.62-1.98-2.45-0.48-0.6-0.95-1.2-1.44-1.82-2.24-1.7-3.92-1.52-6.69-1.43-0.89 0.01-1.78 0.03-2.69 0.04-2.16-0.03-2.16-0.03-3.18 1.21-0.16 1.48-0.25 2.98-0.32 4.47-0.04 0.9-0.08 1.8-0.13 2.72-0.05 1.42-0.05 1.42-0.11 2.87-0.05 0.95-0.09 1.9-0.14 2.87-0.1 2.36-0.2 4.71-0.3 7.07-1.81 0.02-3.63 0.04-5.44 0.06-1.01 0.01-2.02 0.02-3.06 0.03-2.5-0.09-2.5-0.09-3.5-1.09-1.23-6.27-1.16-12.5-1.17-18.9 0-1.13-0.01-2.26-0.01-3.43-0.01-2.38-0.01-4.77-0.01-7.15 0-3.65-0.02-7.3-0.04-11v-6.97c-0.01-1.09-0.02-2.18-0.02-3.3v-3.08-2.71c0.97-9.9 5.87-8.68 14.3-8.71z" fill="#FAFDFF"/>
<path transform="translate(576 1048)" d="m0 0c1.5 0.01 1.5 0.01 3.04 0.03 0.77 0.01 1.54 0.02 2.34 0.03 4.98 9.6 9.49 19.3 13.7 29.3 3.24 7.67 6.73 15.2 10.3 22.7 0.98 2.08 1.96 4.17 2.93 6.25 0.4 0.85 0.8 1.7 1.22 2.58 0.85 2.17 0.85 2.17 0.85 5.17-1.75 0.08-3.5 0.14-5.26 0.19-0.97 0.03-1.94 0.07-2.95 0.11-3.31-0.35-4.33-1.11-6.79-3.3-1.49-2.26-1.49-2.26-2.76-4.68-0.42-0.81-0.85-1.62-1.29-2.45-0.32-0.62-0.63-1.23-0.95-1.87-4.06-0.02-8.12-0.04-12.2-0.05-1.37-0.01-2.75-0.01-4.13-0.02-1.99-0.02-3.97-0.02-5.96-0.03-1.19 0-2.39-0.01-3.62-0.01-2.59 0.09-4.69 0.2-7.11 1.11-1.03 2.02-1.03 2.02-1.57 4.44-1.12 4.35-1.12 4.35-4.43 6.56-2.7 0.2-2.7 0.2-5.69 0.13-1-0.02-1.99-0.04-3.01-0.06-0.76-0.02-1.52-0.04-2.3-0.07 0.56-4.89 2.13-8.82 4.31-13.2 3.75-7.75 7.27-15.6 10.8-23.4 7.27-16.4 7.27-16.4 10.1-22.5 0.52-1.14 1.04-2.28 1.57-3.45 2.21-4.11 4.58-3.54 8.93-3.49z" fill="#FAFDFF"/>
<path transform="translate(1037 1048)" d="m0 0c0.68 0.01 1.36 0.01 2.06 0.02 1.94 0.17 1.94 0.17 4.94 1.17 1.6 2.66 1.6 2.66 3.29 6.17 0.3 0.63 0.6 1.26 0.91 1.9 3.2 6.65 6.24 13.4 9.24 20.1 0.27 0.62 0.55 1.24 0.84 1.88 3.56 7.99 7.1 16 10.5 24 0.33 0.77 0.66 1.54 1.01 2.33 1.26 3.01 2.18 5.25 2.18 8.55-1.77 0.08-3.54 0.14-5.31 0.19-0.99 0.03-1.97 0.06-2.99 0.1-2.7-0.29-2.7-0.29-5.7-3.29l-5-9h-31c-1.98 3.63-3.96 7.26-6 11-3.01 1-5.04 1.1-8.19 1.06-1.35-0.01-1.35-0.01-2.73-0.03-0.69-0.01-1.37-0.02-2.08-0.03l-1-2c0.89-2.46 0.89-2.46 2.32-5.59 0.53-1.17 1.06-2.33 1.61-3.53 0.58-1.27 1.17-2.55 1.76-3.82l1.77-3.9c0.92-2.02 1.84-4.03 2.76-6.05 2.1-4.6 4.17-9.21 6.21-13.8 0.27-0.61 0.55-1.23 0.83-1.86l3.87-8.76c7.52-17 7.52-17 13.9-16.8z" fill="#FAFDFF"/>
<path transform="translate(753 1048)" d="m0 0h2.79c0.99 0.02 1.98 0.03 3 0.05 1.02 0 2.04 0.01 3.08 0.01 3.25 0.02 6.5 0.05 9.75 0.09 2.21 0.02 4.41 0.03 6.61 0.04 5.4 0.04 10.8 0.09 16.2 0.15 1.32 2.65 1.09 4.68 1.06 7.63-0.01 1-0.02 2-0.03 3.03-0.01 0.78-0.02 1.55-0.03 2.34-0.85-0.01-1.69-0.02-2.55-0.03-3.16-0.04-6.31-0.06-9.46-0.08-1.36-0.01-2.72-0.02-4.08-0.04-1.96-0.02-3.92-0.03-5.89-0.04-1.76-0.02-1.76-0.02-3.57-0.04-3.8 0.25-6.83 1.06-10.4 2.23v11c0.99 0.02 1.98 0.04 2.99 0.06 3.67 0.08 7.33 0.17 11 0.26 1.58 0.04 3.17 0.07 4.76 0.1 2.28 0.05 4.55 0.11 6.83 0.17 0.71 0.01 1.43 0.02 2.16 0.03 5.03 0.15 5.03 0.15 7.26 2.38 0.19 2.38 0.19 2.38 0.12 5.13-0.02 0.91-0.03 1.82-0.05 2.75-0.03 0.7-0.05 1.4-0.07 2.12-1.54 0.04-1.54 0.04-3.11 0.08-3.79 0.09-7.58 0.19-11.4 0.29-1.65 0.05-3.29 0.09-4.93 0.13-2.36 0.06-4.71 0.12-7.07 0.18-0.74 0.02-1.48 0.04-2.24 0.05-3.44-0.19-3.44-0.19-6.29 1.27-0.08 1.85-0.09 3.71-0.07 5.56 0.01 1.01 0.02 2.03 0.03 3.07 0.01 0.78 0.02 1.56 0.04 2.37 2.95 1.48 5.93 1.1 9.16 1.06 1.05 0 1.05 0 2.13-0.01 2.26-0.01 4.51-0.03 6.77-0.05 2.97-0.03 5.94-0.05 8.91-0.06 1.03-0.01 1.03-0.01 2.09-0.03 1.64-0.01 3.29 0.04 4.94 0.09 1 1 1 1 1.09 3.72-0.01 1.11-0.02 2.21-0.03 3.34-0.01 1.11-0.02 2.21-0.03 3.35-0.01 0.86-0.02 1.71-0.03 2.59-6.66 0.03-13.3 0.04-20 0.06-2.27 0-4.54 0.01-6.8 0.02-3.25 0.01-6.51 0.01-9.76 0.02-1.52 0.01-1.52 0.01-3.08 0.01h-2.85c-0.83 0.01-1.66 0.01-2.52 0.01-2.02-0.12-2.02-0.12-4.02-1.12-0.07-8.03-0.13-16.1-0.16-24.1-0.01-3.72-0.04-7.45-0.07-11.2-0.03-3.6-0.05-7.2-0.06-10.8 0-1.37-0.01-2.75-0.03-4.12-0.02-1.92-0.02-3.84-0.02-5.77-0.01-1.09-0.02-2.19-0.02-3.31 0.36-2.72 0.36-2.72 1.59-4.58 2.26-1.46 3.64-1.5 6.33-1.48z" fill="#FAFDFF"/>
<path transform="translate(1187 1048)" d="m0 0c1.35-0 1.35-0 2.72-0.01 0.97 0.01 1.93 0.03 2.93 0.04h3c2.1 0.01 4.2 0.02 6.29 0.05 3.22 0.03 6.45 0.04 9.67 0.04 2.03 0.01 4.06 0.02 6.1 0.03 1.45 0.01 1.45 0.01 2.94 0.02 0.89 0.01 1.78 0.02 2.7 0.03 0.79 0 1.57 0.01 2.39 0.02 1.8 0.14 1.8 0.14 2.8 1.14v12h-36l-1 13c1.06 0.02 2.11 0.05 3.2 0.07l11.7 0.3c1.69 0.04 3.38 0.08 5.08 0.12 2.42 0.06 4.85 0.13 7.27 0.19 1.14 0.03 1.14 0.03 2.3 0.05 5.34 0.15 5.34 0.15 6.45 1.27 0.08 1.85 0.09 3.7 0.07 5.56-0.01 1.01-0.02 2.02-0.03 3.07-0.01 0.78-0.02 1.56-0.04 2.37-1.53 0.03-1.53 0.03-3.1 0.07l-11.4 0.3-4.92 0.12c-2.36 0.06-4.71 0.13-7.07 0.19-0.74 0.02-1.48 0.03-2.24 0.05-3.44-0.2-3.44-0.2-6.3 1.27-0.07 1.85-0.08 3.7-0.06 5.56 0.01 1.01 0.02 2.02 0.03 3.07 0.01 0.78 0.02 1.56 0.03 2.37 3 1.49 6.1 1.21 9.38 1.28 1.09 0.03 1.09 0.03 2.21 0.05 3.11 0.08 6.23 0.15 9.35 0.22 2.27 0.05 4.55 0.11 6.82 0.17 0.71 0.01 1.42 0.02 2.15 0.04 4.98 0.12 4.98 0.12 6.09 1.24 0.08 1.85 0.09 3.7 0.07 5.56-0.01 1.01-0.02 2.02-0.03 3.07-0.01 0.78-0.02 1.56-0.04 2.37-6.65 0.05-13.3 0.08-20 0.11-2.26 0.01-4.53 0.02-6.79 0.04-3.26 0.02-6.51 0.03-9.76 0.04-1.53 0.02-1.53 0.02-3.08 0.03h-2.85c-1.25 0.01-1.25 0.01-2.52 0.02-2.03-0.24-2.03-0.24-4.03-2.24-0.26-2.54-0.26-2.54-0.27-5.78-0.01-1.21-0.02-2.43-0.03-3.67v-3.99c0-1.35 0-2.71-0.01-4.07-0.01-2.85-0.01-5.69 0-8.54 0-3.65-0.01-7.3-0.04-11-0.01-2.8-0.01-5.61-0.01-8.41 0-2-0.01-4-0.03-6 0.01-1.22 0.02-2.43 0.02-3.69v-3.24c0.37-2.66 0.37-2.66 1.62-4.51 2.22-1.46 3.56-1.52 6.21-1.51z" fill="#FAFDFF"/>
<path transform="translate(463 1048)" d="m0 0h2.45c1.38-0 1.38-0 2.78-0.01 1 0.01 1.99 0.02 3.01 0.03h3.08c2.15 0 4.3 0.01 6.45 0.02 3.3 0.02 6.6 0.02 9.91 0.02 2.08 0.01 4.17 0.01 6.25 0.02h3.01c0.92 0.01 1.83 0.02 2.78 0.02 1.21 0.01 1.21 0.01 2.45 0.01 1.85 0.14 1.85 0.14 2.85 1.14 0.07 2.02 0.08 4.04 0.06 6.06-0.01 1.1-0.02 2.21-0.02 3.35-0.02 0.85-0.03 1.71-0.04 2.59-1.02-0.02-2.04-0.03-3.09-0.05-3.78-0.05-7.55-0.09-11.3-0.12-1.63-0.01-3.27-0.03-4.9-0.06-2.35-0.04-4.7-0.05-7.05-0.07-1.1-0.02-1.1-0.02-2.22-0.04-2.28-0.04-2.28-0.04-5.41 0.34-2.21 3.31-2.22 4.34-2.13 8.18 0.03 1.36 0.03 1.36 0.06 2.74 0.02 0.68 0.05 1.37 0.07 2.08 1.02 0.02 2.05 0.05 3.11 0.07 3.78 0.1 7.57 0.2 11.4 0.3 1.64 0.04 3.29 0.08 4.93 0.12 2.35 0.06 4.71 0.13 7.06 0.19 0.74 0.02 1.48 0.03 2.24 0.05 5.19 0.15 5.19 0.15 6.3 1.27 0.07 1.85 0.08 3.71 0.06 5.56-0.01 1.01-0.02 2.02-0.02 3.07-0.02 0.78-0.03 1.56-0.04 2.37-1.54 0.03-1.54 0.03-3.11 0.07-3.78 0.1-7.57 0.2-11.4 0.3-1.64 0.04-3.29 0.08-4.93 0.12-2.35 0.06-4.71 0.13-7.06 0.19-0.74 0.02-1.48 0.03-2.24 0.05-3.44-0.2-3.44-0.2-6.3 1.27-0.07 2.02-0.08 4.04-0.06 6.06 0.01 1.1 0.02 2.21 0.02 3.35 0.02 0.85 0.03 1.71 0.04 2.59 1.05 0.02 2.11 0.05 3.2 0.07l11.7 0.3c1.69 0.04 3.38 0.08 5.07 0.12 2.43 0.06 4.85 0.13 7.28 0.19 1.14 0.03 1.14 0.03 2.3 0.05 5.34 0.15 5.34 0.15 6.45 1.27 0.07 1.85 0.08 3.71 0.06 5.56-0.01 1.01-0.02 2.02-0.02 3.07-0.02 0.78-0.03 1.56-0.04 2.37-6.66 0.02-13.3 0.04-20 0.05-2.27 0.01-4.53 0.01-6.8 0.02-3.25 0.01-6.5 0.02-9.75 0.02-1.53 0.01-1.53 0.01-3.09 0.02h-2.85c-0.83 0-1.66 0.01-2.52 0.01-2.02-0.12-2.02-0.12-4.02-1.12-0.05-8.18-0.08-16.4-0.1-24.5-0.01-3.8-0.03-7.6-0.05-11.4-0.02-3.66-0.03-7.32-0.04-11 0-1.4-0.01-2.79-0.02-4.19-0.02-1.96-0.02-3.92-0.02-5.87 0-1.12-0.01-2.23-0.01-3.38 0.29-3.18 0.92-4.47 4.22-4.88z" fill="#FAFDFF"/>
<path transform="translate(881 797)" d="m0 0c1.43-0.02 1.43-0.02 2.89-0.04 2.42 0.23 2.42 0.23 4.42 2.23 0.17 2.73 0.21 5.36 0.15 8.1-0.01 1.25-0.01 1.25-0.02 2.53-0.03 2.79-0.07 5.57-0.12 8.36-0.02 1.93-0.04 3.87-0.06 5.81-0.05 4.08-0.11 8.16-0.17 12.2-0.08 5.2-0.14 10.4-0.2 15.6-0.05 4.01-0.1 8.03-0.15 12-0.03 1.91-0.05 3.82-0.08 5.74-0.1 8.4-0.22 16.8-0.68 25.2-0.05 0.99-0.11 1.98-0.16 3-0.59 2.78-1.27 3.6-3.56 5.2-1.87 0.83-1.87 0.83-3.82 1.51-0.64 0.28-1.28 0.55-1.94 0.83-2.85 1.19-5.08 1.86-8.19 1.86-1.15-2.32-1.13-3.64-1.13-6.22-0.01-0.88-0.01-1.76-0.01-2.67v-2.95c-0.01-1.02-0.01-2.04-0.01-3.09-0.01-3.39-0.01-6.78-0.02-10.2 0-2.34 0-4.69-0.01-7.04v-14.8c0-6.33-0.02-12.6-0.03-19-0.01-4.85-0.02-9.69-0.02-14.5 0-2.33 0-4.66-0.01-7-0.01-3.25-0.01-6.5 0-9.76-0.01-0.97-0.01-1.94-0.02-2.94 0.01-0.89 0.01-1.77 0.02-2.68-0.01-0.77-0.01-1.54-0.01-2.33 0.25-1.88 0.25-1.88 2.25-3.88 3.57-0.97 7-1.16 10.7-1.19z" fill="#000002"/>
<path transform="translate(870,659)" d="m0 0c5.62 1.63 11 4.04 16 7 1.73 3.47 1.14 7.48 1.13 11.3v2.92c0.01 3.2 0.01 6.4 0 9.6 0 2.21 0 4.43 0.01 6.64 0 4.64 0 9.29-0.01 13.9-0.01 5.97 0 11.9 0 17.9 0.01 4.57 0.01 9.14 0 13.7 0 2.2 0 4.4 0.01 6.6 0 3.07-0.01 6.14-0.01 9.21 0 0.92 0 1.84 0.01 2.79-0.03 6.27-0.03 6.27-1.14 7.38-2.85-0.06-5.66-0.19-8.5-0.38-0.8-0.04-1.6-0.08-2.42-0.13-5.95-0.36-5.95-0.36-7.08-1.49-0.1-1.36-0.13-2.73-0.13-4.09-0.01-0.88-0.01-1.77-0.02-2.68v-2.95c0-1.02 0-2.04-0.01-3.09 0-3.4-0.01-6.79-0.01-10.2 0-2.34 0-4.69-0.01-7.04 0-4.93-0.01-9.86-0.01-14.8 0-6.33-0.01-12.7-0.03-19-0.01-4.85-0.01-9.7-0.01-14.6 0-2.33 0-4.67-0.01-7-0.01-3.26-0.01-6.52 0-9.78-0.01-0.97-0.01-1.95-0.02-2.95 0-0.88 0.01-1.77 0.01-2.68v-2.34c0.25-1.88 0.25-1.88 2.25-3.88z" fill="#000002"/>
<path transform="translate(875 1050)" d="m0 0c3.14 2.57 5.37 4.96 7.75 8.25v3c-5.26 3.18-5.26 3.18-8.31 2.44-0.89-0.48-1.78-0.95-2.69-1.44-6-3.11-11.2-5.16-18-4-2.87 1.37-2.87 1.37-5 3h-2l-1 7c5.49 4.07 12.2 4.68 18.7 5.93 7.41 1.54 14.3 3.75 18.7 10.3 2.88 5.94 3.27 12.3 1.5 18.6-2.16 5.53-5.83 8.07-11 10.8-4.75 1.98-9.46 1.79-14.5 1.7-0.92 0.01-1.84 0.01-2.79 0.01-7.09-0.05-12.4-1.18-18.3-5.19-0.74-0.5-1.49-0.99-2.26-1.5-2.17-1.73-3.62-3.24-5.05-5.63v-4c6.3-4 6.3-4 9.19-4 1.81 1 1.81 1 3.62 2.87 5.86 5.69 12.1 5.5 19.9 5.63 3.9-0.59 5.56-1.69 8.3-4.5 0.71-3.73 0.4-5.37-1.62-8.59-2.97-3-4.88-3.35-9.01-4.04-1.24-0.23-2.48-0.46-3.76-0.7-1.79-0.33-1.79-0.33-3.61-0.67-7.55-1.7-15.6-4.22-20.3-10.8-2.4-5.29-1.65-9.82 0.3-15.2 2.97-6.89 9.37-9.32 16-12 8.55-2.12 17.5-1.44 25.2 2.75z" fill="#FAFDFF"/>
<path transform="translate(923 1048)" d="m0 0c0.9 0 1.8 0.01 2.73 0.01h3.1c1.65 0.02 1.65 0.02 3.34 0.04h3.43c3.61 0.01 7.23 0.04 10.8 0.07 2.45 0.01 4.89 0.01 7.34 0.02 6.01 0.02 12 0.06 18 0.1 1 2 1 2 1 12h-20l-1 54h-11c-2.54-2.54-2.26-3.48-2.32-7-0.02-1.04-0.04-2.08-0.06-3.15-0.01-1.13-0.02-2.26-0.03-3.42-0.03-1.73-0.03-1.73-0.06-3.49-0.06-3.69-0.11-7.38-0.15-11.1-0.04-2.5-0.08-5-0.12-7.49-0.1-6.13-0.18-12.3-0.26-18.4-1.2 0.02-2.4 0.05-3.65 0.07-1.57 0.02-3.15 0.04-4.72 0.06-0.8 0.01-1.59 0.03-2.41 0.05-2.07 0.01-4.15-0.08-6.22-0.18-2-2-2-2-2.26-3.87 0-0.71 0.01-1.41 0.01-2.13 0-0.7-0.01-1.4-0.01-2.12 0.41-2.93 1.56-3.8 4.44-4.12z" fill="#FAFDFF"/>
<path transform="translate(1099 1048)" d="m0 0c1-0 2-0.01 3.02-0.01 1.08 0.01 2.15 0.03 3.26 0.04h3.34c2.34 0.01 4.67 0.02 7 0.05 3.58 0.03 7.17 0.04 10.8 0.04 2.26 0.01 4.52 0.02 6.79 0.03 1.61 0.01 1.61 0.01 3.27 0.02 1.48 0.01 1.48 0.01 3 0.03 0.88 0 1.75 0.01 2.66 0.02 2 0.14 2 0.14 3 1.14 0.07 1.68 0.08 3.37 0.06 5.06-0.01 0.92-0.02 1.84-0.03 2.78-0.01 0.71-0.02 1.42-0.03 2.16-1.94 0.09-1.94 0.09-3.91 0.18-1.68 0.08-3.35 0.17-5.03 0.25-1.28 0.06-1.28 0.06-2.58 0.12-0.81 0.04-1.62 0.09-2.45 0.13-0.75 0.04-1.5 0.07-2.27 0.11-1.79 0.02-1.79 0.02-2.76 1.21-0.13 1.65-0.18 3.31-0.21 4.98-0.02 1.06-0.04 2.12-0.06 3.21-0.02 1.15-0.03 2.31-0.05 3.5-0.02 1.17-0.04 2.35-0.06 3.56-0.07 3.77-0.13 7.54-0.19 11.3-0.04 2.55-0.08 5.1-0.13 7.65-0.11 6.26-0.21 12.5-0.3 18.8-1.8 0.02-3.59 0.04-5.38 0.06-1 0.01-2 0.02-3.02 0.03-2.6-0.09-2.6-0.09-4.6-1.09-0.5-26.2-0.5-26.2-1-53h-17c-3-3-3-3-3.38-6 0.38-3 0.38-3 1.59-4.67 2.35-1.76 3.78-1.7 6.7-1.69z" fill="#FAFDFF"/>
<path transform="translate(649 1048)" d="m0 0c0.8 0.01 1.61 0.03 2.43 0.04 1.21 0.01 1.21 0.01 2.45 0.02 1.99 0.17 1.99 0.17 2.99 1.17 0.12 1.63 0.18 3.26 0.21 4.89 0.02 1.04 0.04 2.08 0.06 3.15 0.01 1.13 0.03 2.27 0.05 3.43s0.04 2.31 0.06 3.5c0.07 3.7 0.12 7.39 0.18 11.1 0.05 2.5 0.09 5 0.13 7.5 0.11 6.15 0.21 12.3 0.31 18.4 1.4 0.04 1.4 0.04 2.83 0.08 3.45 0.09 6.91 0.19 10.4 0.29 1.5 0.05 2.99 0.09 4.49 0.13 2.15 0.06 4.3 0.12 6.44 0.18 1.3 0.04 2.59 0.08 3.92 0.12 2.96 0.2 2.96 0.2 3.96 1.2 0.07 1.69 0.08 3.38 0.06 5.06-0.01 0.92-0.01 1.84-0.02 2.79-0.02 0.71-0.03 1.42-0.04 2.15-2.72 0.91-4.29 1.13-7.09 1.13-0.81 0-1.63 0.01-2.47 0.01-0.88 0-1.76 0-2.67-0.01-0.9 0-1.8 0.01-2.73 0.01-1.91 0-3.82 0-5.73-0.01-2.93 0-5.86 0-8.79 0.01-1.85 0-3.71 0-5.56-0.01-0.88 0.01-1.76 0.01-2.67 0.01-6.17-0.02-6.17-0.02-7.29-1.14-1.1-6.79-1.15-13.7-1.13-20.5v-2.92c-0.01-2.03 0-4.06 0-6.08 0.01-3.08 0-6.17-0.01-9.25 0.01-1.98 0.01-3.96 0.01-5.94 0-0.91-0.01-1.82-0.01-2.76 0.06-17.2 0.06-17.2 5.27-17.7z" fill="#FAFDFF"/>
<path transform="translate(398,1059)" d="m0 0c4.27 0.82 7.7 1.87 11 4.75 1.8 4.05 2.36 7.66 1.38 12-1.82 2.96-3.21 3.78-6.38 5.25-3.01 0.4-5.97 0.37-9 0.31-0.79 0.01-1.59 0.01-2.41 0.01-4.3-0.04-7.67-0.34-11.6-2.32-0.08-2.77-0.14-5.54-0.19-8.31-0.04-1.18-0.04-1.18-0.07-2.38-0.01-0.76-0.02-1.52-0.03-2.3-0.02-0.69-0.03-1.39-0.05-2.11 1.38-7.73 11.6-5.36 17.3-4.9z" fill="#000002"/>
<path transform="translate(574,1065)" d="m0 0c2.56 2.29 3.87 4.47 5.26 7.6 0.4 0.88 0.79 1.76 1.2 2.68 0.61 1.38 0.61 1.38 1.23 2.78 0.62 1.39 0.62 1.39 1.26 2.8 3.05 6.86 3.05 6.86 3.05 9.14h-21c-1.26-3.77-0.56-4.58 1.09-8.11 0.45-0.98 0.91-1.96 1.38-2.97 0.48-1.03 0.97-2.05 1.47-3.11 0.48-1.03 0.96-2.07 1.46-3.14 1.19-2.56 2.39-5.12 3.6-7.67z" fill="#000002"/>
<path transform="translate(1036,1066)" d="m0 0h3c1.51 3.43 3.01 6.87 4.5 10.3 0.43 0.98 0.86 1.96 1.3 2.96 0.61 1.41 0.61 1.41 1.23 2.84 0.38 0.87 0.76 1.73 1.14 2.62 0.83 2.27 0.83 2.27 0.83 5.27h-21l-1-2c0.8-2.25 0.8-2.25 2.09-5.01 0.45-0.98 0.91-1.97 1.38-2.99 0.72-1.54 0.72-1.54 1.47-3.12 0.48-1.05 0.96-2.09 1.46-3.16 1.19-2.57 2.39-5.15 3.6-7.72z" fill="#000002"/>
<path transform="translate(1137,1151)" d="m0 0c5.62-0.25 5.62-0.25 9 2v2c-2.97-0.33-5.94-0.66-9-1v-3z" fill="#FAFDFF"/>
</svg>
